<svg xmlns="http://www.w3.org/2000/svg" width="96" height="96" fill="none" viewBox="0 0 96 96" id="route">
  <path fill="url(#paint0_linear_714_5163)" fill-rule="evenodd" d="M52.5221 37.3783C47.8021 29.6536 49.0162 19.6853 55.4091 13.2923C63.0236 5.67784 75.4076 5.63718 83.0333 13.2629C89.4105 19.64 90.5864 29.5566 85.8775 37.2483L84.1864 40.0106L84.1251 40.1107L84.0547 40.2047L83.7149 40.6579C80.3276 45.1771 76.6158 49.4564 72.6221 53.4491C72.3572 53.7139 72.0695 53.9422 71.7651 54.134C71.7559 54.1695 71.7459 54.205 71.735 54.2404L71.6832 54.4098C71.2924 55.6863 70.8481 56.938 70.3528 58.1622C69.835 59.4421 68.3776 60.0599 67.0977 59.5421C65.8178 59.0243 65.2 57.5669 65.7178 56.287C66.005 55.5769 66.2731 54.8564 66.5213 54.126C66.223 53.9365 65.9407 53.7116 65.6803 53.4512C61.6942 49.4661 57.9979 45.2014 54.6196 40.6897L54.2878 40.2466L54.2171 40.1522L54.1557 40.0516L52.5221 37.3783ZM58.9447 16.8278C54.1765 21.596 53.2788 29.0271 56.7887 34.7713L58.3608 37.344L58.6219 37.6928C61.8391 41.9893 65.3574 46.0519 69.1501 49.85C72.9523 46.0427 76.4872 41.9642 79.7141 37.6591L79.9834 37.2998L81.6131 34.6377C85.1154 28.917 84.2408 21.5414 79.4978 16.7984C73.836 11.1366 64.6178 11.1547 58.9447 16.8278ZM9.52214 71.1537C4.80214 63.429 6.01617 53.4607 12.4091 47.0677C20.0236 39.4532 32.4076 39.4126 40.0333 47.0383C46.4105 53.4154 47.5864 63.332 42.8775 71.0237L41.1864 73.786L41.1251 73.8861L41.0547 73.9801L40.7149 74.4333C39.0355 76.6739 37.2762 78.8556 35.4424 80.9726L37.1518 80.5842C38.3111 80.3207 39.4515 80.008 40.5706 79.6485C41.8852 79.2262 43.2932 79.9495 43.7155 81.2641C44.1378 82.5786 43.4145 83.9866 42.0999 84.4089C40.8426 84.8128 39.5617 85.1639 38.2599 85.4598L36.0834 85.9545C35.1326 86.1706 34.1852 85.8134 33.6028 85.1107C33.3814 85.9961 32.6814 86.7276 31.7306 86.9437L29.5541 87.4384C29.4865 87.4538 29.4188 87.4662 29.3513 87.4759C27.4256 89.1344 24.5115 89.0574 22.6803 87.2266C18.6942 83.2415 14.9979 78.9768 11.6196 74.4651L11.2878 74.022L11.2171 73.9276L11.1557 73.827L9.52214 71.1537ZM15.9447 50.6032C11.1765 55.3714 10.2788 62.8025 13.7887 68.5467L15.3608 71.1194L15.6219 71.4682C18.8391 75.7647 22.3574 79.8273 26.1501 83.6254C29.9523 79.8181 33.4872 75.7396 36.7141 71.4345L36.9834 71.0752L38.6131 68.4131C42.1154 62.6923 41.2408 55.3168 36.4978 50.5738C30.836 44.912 21.6178 44.9301 15.9447 50.6032ZM29.0001 61.5006C29.0001 62.8813 27.8808 64.0006 26.5001 64.0006C25.1194 64.0006 24.0001 62.8813 24.0001 61.5006C24.0001 60.1199 25.1194 59.0006 26.5001 59.0006C27.8808 59.0006 29.0001 60.1199 29.0001 61.5006ZM34.0001 61.5006C34.0001 65.6427 30.6422 69.0006 26.5001 69.0006C22.3579 69.0006 19.0001 65.6427 19.0001 61.5006C19.0001 57.3584 22.3579 54.0006 26.5001 54.0006C30.6422 54.0006 34.0001 57.3584 34.0001 61.5006ZM68.8858 30.9049C70.2665 30.9049 71.3858 29.7856 71.3858 28.4049C71.3858 27.0241 70.2665 25.9049 68.8858 25.9049C67.5051 25.9049 66.3858 27.0241 66.3858 28.4049C66.3858 29.7856 67.5051 30.9049 68.8858 30.9049ZM68.8858 35.9049C73.028 35.9049 76.3858 32.547 76.3858 28.4049C76.3858 24.2627 73.028 20.9049 68.8858 20.9049C64.7437 20.9049 61.3858 24.2627 61.3858 28.4049C61.3858 32.547 64.7437 35.9049 68.8858 35.9049ZM66.7359 65.2466C67.469 64.0766 67.1147 62.5338 65.9447 61.8008C64.7746 61.0677 63.2319 61.422 62.4988 62.592C61.2391 64.6027 59.8092 66.4917 58.2295 68.2401C57.3038 69.2646 57.3839 70.8455 58.4084 71.7711C59.4329 72.6968 61.0138 72.6167 61.9394 71.5922C63.714 69.6282 65.3205 67.5059 66.7359 65.2466ZM56.1122 77.0057C57.2019 76.1578 57.3981 74.5871 56.5502 73.4974C55.7024 72.4076 54.1317 72.2115 53.0419 73.0593C51.1821 74.5062 49.1931 75.7934 47.0952 76.9019C45.8745 77.5469 45.4077 79.0594 46.0528 80.2802C46.6978 81.501 48.2103 81.9677 49.4311 81.3227C51.7884 80.0771 54.023 78.631 56.1122 77.0057Z" clip-rule="evenodd"></path>
  <defs>
    <linearGradient id="paint0_linear_714_5163" x1="47.703" x2="47.703" y1="7.563" y2="88.663" gradientUnits="userSpaceOnUse">
      <stop stop-color="#041034"></stop>
      <stop offset="1" stop-color="#516EC4"></stop>
    </linearGradient>
  </defs>
</svg>
